<svg width="127" height="86" viewBox="0 0 127 86" fill="none" xmlns="http://www.w3.org/2000/svg">
            <path d="M34.9277 0C28.7909 0 23.8155 5.73095 23.8155 12.7997C23.8155 19.8692 28.7909 25.5993 34.9277 25.5993C41.0645 25.5993 46.0398 19.8684 46.0398 12.7997C46.0398 5.73123 41.0645 0 34.9277 0ZM63.5025 0C55.6116 0 49.2157 6.44647 49.2157 14.3993C49.2157 22.3522 55.6127 28.7987 63.5025 28.7987C71.3935 28.7987 77.7894 22.3522 77.7894 14.3993C77.7894 6.44647 71.3924 0 63.5025 0ZM92.0774 0C85.9406 0 80.9652 5.73095 80.9652 12.7997C80.9652 19.8692 85.9406 25.5993 92.0774 25.5993C98.2142 25.5993 103.19 19.8684 103.19 12.7997C103.19 5.73123 98.2142 0 92.0774 0ZM12.7028 17.5998C12.7028 22.0177 16.2562 25.5993 20.6402 25.5993C23.0889 25.5993 23.5328 22.6546 22.4992 20.4348C21.4382 18.1563 20.8384 15.5552 20.8384 12.7996C20.8384 11.1665 19.5695 9.66798 18.0289 10.2098C14.566 11.4277 12.7735 14.4362 12.7027 17.5986L12.7028 17.5998ZM105.869 9.60141C105.869 9.60126 105.869 9.60124 105.869 9.60139C106.052 10.6397 106.167 11.7025 106.167 12.8008C106.167 15.5563 105.567 18.1574 104.506 20.4359C103.472 22.6562 103.916 25.6005 106.365 25.6005C110.749 25.6005 114.302 22.019 114.302 17.601C114.314 12.6656 110.865 9.66728 105.869 9.60153C105.869 9.60153 105.869 9.60147 105.869 9.60141ZM27.137 28.6995C27.1372 28.6996 27.1371 28.6998 27.137 28.6999C13.3391 32.4656 6.80529 33.8134 6.37452 59.6599C6.34559 61.3959 7.33207 62.9899 8.88453 63.7673C11.5537 65.1039 14.7677 63.5723 15.3739 60.6493C16.7937 53.8032 17.0088 52.1001 18.0597 52.1001C19.3104 52.1001 19.3322 55.719 21.6507 67.5928C21.8157 68.4378 22.4579 69.0918 23.3099 69.2155C24.4999 69.3882 25.5851 68.4754 25.6468 67.2746C26.264 55.2456 28.2189 47.7558 32.1969 42.5999C35.3309 38.5383 39.4164 36.369 44.2063 34.7152C47.2337 33.67 47.4453 30.0061 44.3589 29.151C44.3095 29.1373 44.2599 29.1236 44.2103 29.1099C43.2663 28.8489 42.2636 29.0601 41.434 29.5807C36.6664 32.5722 31.9058 32.2785 27.1369 28.6998C27.1367 28.6997 27.1368 28.6995 27.137 28.6995ZM84.2881 28.7001C84.2876 28.6998 84.2871 28.6998 84.2866 28.6999C83.8172 28.828 83.3564 28.9533 82.904 29.0767C79.7128 29.9473 79.9047 33.6857 83.0193 34.7994C87.7183 36.4795 91.7284 38.7161 94.805 42.8502C98.6349 47.9967 100.599 55.4477 101.289 67.2523C101.36 68.4682 102.461 69.389 103.667 69.2167C104.535 69.0926 105.188 68.4262 105.357 67.5654C107.671 55.7128 107.692 52.0993 108.942 52.0993C110.037 52.0993 110.225 53.9481 111.812 61.5311C112.357 64.1368 115.058 65.6653 117.584 64.8227C119.416 64.2114 120.658 62.4837 120.624 60.5527C120.229 38.1331 115.573 33.5555 105.981 30.4517C102.162 29.216 98.1027 30.6197 94.1682 31.4136C90.8755 32.0779 87.5839 31.1735 84.2883 28.7002C84.2882 28.7002 84.2881 28.7001 84.2881 28.7001ZM115.986 32.1499C115.986 32.15 115.986 32.1502 115.986 32.1503C116.775 32.8635 117.484 33.6866 118.169 34.5996C121.432 38.9531 123.067 45.1136 123.619 54.8535C123.683 55.9738 124.791 56.7412 125.855 56.3836C126.539 56.1535 127.001 55.5036 126.995 54.7817C126.841 37.5747 123.35 34.4088 115.987 32.1493C115.987 32.1492 115.986 32.1495 115.986 32.1499ZM10.914 32.1991C10.914 32.1991 10.9139 32.199 10.9139 32.1991C3.60799 34.4408 0.142631 37.5216 0.00431715 54.002C-0.00102233 54.6382 0.358451 55.2295 0.926652 55.5157C2.02371 56.0684 3.32532 55.2961 3.39682 54.0698C3.9469 44.6358 5.58698 38.6367 8.87975 34.3987C9.51869 33.5767 10.1886 32.8535 10.9139 32.1991C10.914 32.1991 10.914 32.1991 10.914 32.1991ZM53.9762 35.201C53.9753 35.2001 53.974 35.1998 53.9728 35.2001C37.102 39.8375 29.1223 41.4887 28.6016 73.3406C28.567 75.4571 29.7667 77.4005 31.657 78.3531C34.9234 79.9991 38.8652 78.1236 39.6002 74.5406C41.332 66.0982 41.5767 63.9999 42.8626 63.9999C44.1094 63.9999 44.3772 66.9592 45.9715 75.9753C46.9122 81.2952 51.1497 85.452 56.5417 85.7873C61.1018 86.0709 65.8987 86.0709 70.4588 85.7873C75.8508 85.452 80.0883 81.2952 81.029 75.9753C82.6232 66.9591 82.8911 63.9999 84.1379 63.9999C85.4772 63.9999 85.687 66.2766 87.6245 75.6285C88.2861 78.8217 91.5974 80.6937 94.6886 79.6551C96.9217 78.9048 98.434 76.7969 98.3933 74.4415C97.8981 45.8008 91.8069 40.7957 79.1901 36.9441C75.3277 35.765 71.2577 37.0042 67.3998 38.198C62.9252 39.5825 58.4503 38.5835 53.9762 35.201Z" fill="url(#paint0_linear_87_2435)" />
            <path d="M34.9277 0C28.7909 0 23.8155 5.73095 23.8155 12.7997C23.8155 19.8692 28.7909 25.5993 34.9277 25.5993C41.0645 25.5993 46.0398 19.8684 46.0398 12.7997C46.0398 5.73123 41.0645 0 34.9277 0ZM63.5025 0C55.6116 0 49.2157 6.44647 49.2157 14.3993C49.2157 22.3522 55.6127 28.7987 63.5025 28.7987C71.3935 28.7987 77.7894 22.3522 77.7894 14.3993C77.7894 6.44647 71.3924 0 63.5025 0ZM92.0774 0C85.9406 0 80.9652 5.73095 80.9652 12.7997C80.9652 19.8692 85.9406 25.5993 92.0774 25.5993C98.2142 25.5993 103.19 19.8684 103.19 12.7997C103.19 5.73123 98.2142 0 92.0774 0ZM12.7028 17.5998C12.7028 22.0177 16.2562 25.5993 20.6402 25.5993C23.0889 25.5993 23.5328 22.6546 22.4992 20.4348C21.4382 18.1563 20.8384 15.5552 20.8384 12.7996C20.8384 11.1665 19.5695 9.66798 18.0289 10.2098C14.566 11.4277 12.7735 14.4362 12.7027 17.5986L12.7028 17.5998ZM105.869 9.60141C105.869 9.60126 105.869 9.60124 105.869 9.60139C106.052 10.6397 106.167 11.7025 106.167 12.8008C106.167 15.5563 105.567 18.1574 104.506 20.4359C103.472 22.6562 103.916 25.6005 106.365 25.6005C110.749 25.6005 114.302 22.019 114.302 17.601C114.314 12.6656 110.865 9.66728 105.869 9.60153C105.869 9.60153 105.869 9.60147 105.869 9.60141ZM27.137 28.6995C27.1372 28.6996 27.1371 28.6998 27.137 28.6999C13.3391 32.4656 6.80529 33.8134 6.37452 59.6599C6.34559 61.3959 7.33207 62.9899 8.88453 63.7673C11.5537 65.1039 14.7677 63.5723 15.3739 60.6493C16.7937 53.8032 17.0088 52.1001 18.0597 52.1001C19.3104 52.1001 19.3322 55.719 21.6507 67.5928C21.8157 68.4378 22.4579 69.0918 23.3099 69.2155C24.4999 69.3882 25.5851 68.4754 25.6468 67.2746C26.264 55.2456 28.2189 47.7558 32.1969 42.5999C35.3309 38.5383 39.4164 36.369 44.2063 34.7152C47.2337 33.67 47.4453 30.0061 44.3589 29.151C44.3095 29.1373 44.2599 29.1236 44.2103 29.1099C43.2663 28.8489 42.2636 29.0601 41.434 29.5807C36.6664 32.5722 31.9058 32.2785 27.1369 28.6998C27.1367 28.6997 27.1368 28.6995 27.137 28.6995ZM84.2881 28.7001C84.2876 28.6998 84.2871 28.6998 84.2866 28.6999C83.8172 28.828 83.3564 28.9533 82.904 29.0767C79.7128 29.9473 79.9047 33.6857 83.0193 34.7994C87.7183 36.4795 91.7284 38.7161 94.805 42.8502C98.6349 47.9967 100.599 55.4477 101.289 67.2523C101.36 68.4682 102.461 69.389 103.667 69.2167C104.535 69.0926 105.188 68.4262 105.357 67.5654C107.671 55.7128 107.692 52.0993 108.942 52.0993C110.037 52.0993 110.225 53.9481 111.812 61.5311C112.357 64.1368 115.058 65.6653 117.584 64.8227C119.416 64.2114 120.658 62.4837 120.624 60.5527C120.229 38.1331 115.573 33.5555 105.981 30.4517C102.162 29.216 98.1027 30.6197 94.1682 31.4136C90.8755 32.0779 87.5839 31.1735 84.2883 28.7002C84.2882 28.7002 84.2881 28.7001 84.2881 28.7001ZM115.986 32.1499C115.986 32.15 115.986 32.1502 115.986 32.1503C116.775 32.8635 117.484 33.6866 118.169 34.5996C121.432 38.9531 123.067 45.1136 123.619 54.8535C123.683 55.9738 124.791 56.7412 125.855 56.3836C126.539 56.1535 127.001 55.5036 126.995 54.7817C126.841 37.5747 123.35 34.4088 115.987 32.1493C115.987 32.1492 115.986 32.1495 115.986 32.1499ZM10.914 32.1991C10.914 32.1991 10.9139 32.199 10.9139 32.1991C3.60799 34.4408 0.142631 37.5216 0.00431715 54.002C-0.00102233 54.6382 0.358451 55.2295 0.926652 55.5157C2.02371 56.0684 3.32532 55.2961 3.39682 54.0698C3.9469 44.6358 5.58698 38.6367 8.87975 34.3987C9.51869 33.5767 10.1886 32.8535 10.9139 32.1991C10.914 32.1991 10.914 32.1991 10.914 32.1991ZM53.9762 35.201C53.9753 35.2001 53.974 35.1998 53.9728 35.2001C37.102 39.8375 29.1223 41.4887 28.6016 73.3406C28.567 75.4571 29.7667 77.4005 31.657 78.3531C34.9234 79.9991 38.8652 78.1236 39.6002 74.5406C41.332 66.0982 41.5767 63.9999 42.8626 63.9999C44.1094 63.9999 44.3772 66.9592 45.9715 75.9753C46.9122 81.2952 51.1497 85.452 56.5417 85.7873C61.1018 86.0709 65.8987 86.0709 70.4588 85.7873C75.8508 85.452 80.0883 81.2952 81.029 75.9753C82.6232 66.9591 82.8911 63.9999 84.1379 63.9999C85.4772 63.9999 85.687 66.2766 87.6245 75.6285C88.2861 78.8217 91.5974 80.6937 94.6886 79.6551C96.9217 78.9048 98.434 76.7969 98.3933 74.4415C97.8981 45.8008 91.8069 40.7957 79.1901 36.9441C75.3277 35.765 71.2577 37.0042 67.3998 38.198C62.9252 39.5825 58.4503 38.5835 53.9762 35.201Z" fill="black" fill-opacity="0.41" />
            <defs>
              <linearGradient id="paint0_linear_87_2435" x1="-83.1601" y1="43" x2="356.424" y2="147.841" gradientUnits="userSpaceOnUse">
                <stop offset="0.178706" stop-color="#204CE8" />
                <stop offset="0.496245" stop-color="#984DB3" />
              </linearGradient>
            </defs>
          </svg>
