<svg width="59" height="71" viewBox="0 0 59 71" fill="none" xmlns="http://www.w3.org/2000/svg">
<path d="M56 29.5C56 50.1111 29.5 67.7778 29.5 67.7778C29.5 67.7778 3 50.1111 3 29.5C3 22.4718 5.79196 15.7314 10.7617 10.7617C15.7314 5.79196 22.4718 3 29.5 3C36.5282 3 43.2686 5.79196 48.2383 10.7617C53.208 15.7314 56 22.4718 56 29.5Z" fill="#3FC9C9" stroke="black" stroke-width="5" stroke-linecap="round" stroke-linejoin="round"/>
<path d="M29.5013 38.3334C34.3798 38.3334 38.3346 34.3786 38.3346 29.5001C38.3346 24.6216 34.3798 20.6667 29.5013 20.6667C24.6228 20.6667 20.668 24.6216 20.668 29.5001C20.668 34.3786 24.6228 38.3334 29.5013 38.3334Z" fill="white" stroke="black" stroke-width="5" stroke-linecap="round" stroke-linejoin="round"/>
</svg>
